#!OML:ASF F:\VICON\USERDATA\Patient Classification 1\PLAYGROUND\JustinFriday\JustinFriday.ASF
:FULLY-SPECIFIED
:DEGREES
3419
root 38.6804 22.4598 -6.26744 -180.777 -69.5682 -159.418
lowerback 29.2505 2.98701 1.64309
upperback 4.9828 4.08208 3.20873
thorax -10.6503 1.61463 1.21952
lowerneck -14.6997 -0.0313183 -1.54321
upperneck -17.3868 -0.604184 5.37016
head -3.20299 -0.922174 2.07474
rclavicle 1.39149e-014 7.55382e-015
rhumerus 54.6582 18.9129 -62.7868
rradius 36.3356
rwrist 19.3561
rhand -35.1744 4.25684
rfingers 7.12502
rthumb -8.3131 -25.5596
lclavicle 1.39149e-014 7.55382e-015
lhumerus 15.4816 -17.9344 82.7612
lradius 63.3049
lwrist -24.2904
lhand 5.14393 2.28857
lfingers 7.12502
lthumb 30.5072 29.7828
rfemur -44.6945 -8.55828 27.0881
rtibia 73.9788
rfoot -10.4617 -7.18857
rtoes 6.31988
lfemur -45.1336 7.137 -20.6604
ltibia 49.758
lfoot -24.5564 -8.26618
ltoes 38.7209
3420
root 38.6568 22.5292 -6.28789 -180.49 -69.8707 -159.565
lowerback 29.138 3.03622 1.61685
upperback 4.98635 4.14272 3.25071
thorax -10.5963 1.64699 1.26258
lowerneck -14.7001 -0.103722 -1.79674
upperneck -17.7349 -0.686022 5.34186
head -3.32647 -0.962753 2.11765
rclavicle 1.98785e-014 -7.95139e-015
rhumerus 54.1923 18.7721 -62.6791
rradius 36.3039
rwrist 19.2464
rhand -36.3628 4.36699
rfingers 7.12502
rthumb -9.45987 -25.4007
lclavicle 1.98785e-014 -7.95139e-015
lhumerus 16.2214 -18.2388 83.8445
lradius 64.729
lwrist -25.9031
lhand 1.39903 9.8824
lfingers 7.12502
lthumb 26.9297 37.9837
rfemur -46.6935 -8.291 26.8564
rtibia 76.5584
rfoot -11.3017 -7.93751
rtoes 4.86313
lfemur -44.6404 7.80981 -21.5352
ltibia 47.9857
lfoot -23.9825 -6.75616
ltoes 35.3226
3421
root 38.6407 22.5444 -6.31601 -180.163 -70.1677 -159.867
lowerback 29.1964 3.12617 1.49174
upperback 4.95362 4.23345 3.29393
thorax -10.6785 1.69478 1.34713
lowerneck -14.1319 0.0445649 -1.04662
upperneck -18.4152 -0.658279 4.55687
head -3.6665 -1.00362 1.73989
rclavicle 1.03368e-014 -4.77083e-014
rhumerus 53.7588 18.688 -62.4059
rradius 36.3134
rwrist 18.839
rhand -36.9728 4.37906
rfingers 7.12502
rthumb -10.0484 -25.361
lclavicle 1.03368e-014 -4.77083e-014
lhumerus 16.4875 -19.4058 83.9146
lradius 67.0151
lwrist -26.6415
lhand -4.18775 11.1217
lfingers 7.12502
lthumb 21.5737 39.9401
rfemur -48.8183 -8.04449 26.5584
rtibia 79.423
rfoot -12.368 -8.43049
rtoes 4.8877
lfemur -44.049 9.24547 -23.0574
ltibia 45.6748
lfoot -23.0356 -4.37791
ltoes 27.3492
3422
root 38.6205 22.6365 -6.34116 -180.346 -70.4624 -159.787
lowerback 29.3785 3.11291 1.29113
upperback 5.01508 4.16176 3.40864
thorax -10.7223 1.66598 1.61567
lowerneck -14.1469 0.173397 -0.606322
upperneck -18.6077 -0.575562 4.31798
head -3.73666 -0.997284 1.58769
rclavicle 3.33958e-014 1.43125e-014
rhumerus 53.6536 19.0769 -61.6777
rradius 36.6131
rwrist 17.9507
rhand -37.0965 4.30692
rfingers 7.12502
rthumb -10.1677 -25.4274
lclavicle 3.33958e-014 1.43125e-014
lhumerus 15.973 -20.6112 82.7157
lradius 70.8314
lwrist -25.4274
lhand -7.70639 7.34832
lfingers 7.12502
lthumb 18.1913 36.5177
rfemur -50.4825 -8.00658 26.3932
rtibia 81.9881
rfoot -13.8725 -8.50858
rtoes 6.18202
lfemur -42.4947 8.67613 -22.5443
ltibia 43.2786
lfoot -21.5317 -5.56739
ltoes 32.0901
3423
root 38.6014 22.704 -6.36341 -180.882 -70.7408 -159.415
lowerback 29.6516 3.06048 1.42299
upperback 5.08091 4.13261 3.47228
thorax -10.7778 1.64139 1.61735
lowerneck -14.1305 0.0727204 -0.585692
upperneck -18.7506 -0.702133 4.50591
head -3.78901 -1.07596 1.65049
rclavicle -3.69739e-014 -2.78299e-015
rhumerus 53.2231 19.1811 -61.5154
rradius 36.9211
rwrist 17.7639
rhand -37.4775 4.18732
rfingers 7.12502
rthumb -10.5353 -25.5286
lclavicle -3.69739e-014 -2.78299e-015
lhumerus 16.2671 -21.1935 82.2159
lradius 73.1722
lwrist -23.7714
lhand -10.4311 3.29812
lfingers 7.12502
lthumb 15.5685 32.6915
rfemur -52.1533 -8.0795 26.3659
rtibia 84.4484
rfoot -15.2054 -8.40228
rtoes 6.55164
lfemur -41.4311 8.87008 -22.7028
ltibia 41.3735
lfoot -19.9271 -3.91893
ltoes 24.9558
3424
root 38.5825 22.7326 -6.3881 -181.036 -70.8973 -159.437
lowerback 29.8804 3.01503 1.68856
upperback 5.12598 4.13153 3.29551
thorax -10.8052 1.62378 1.25825
lowerneck -14.0952 -0.299949 -1.00768
upperneck -18.6986 -1.05111 5.42985
head -3.76436 -1.24572 2.03566
rclavicle -2.78299e-014 -3.29983e-014
rhumerus 52.5367 18.7571 -62.9441
rradius 36.665
rwrist 18.7892
rhand -38.0181 4.56221
rfingers 7.12502
rthumb -11.0568 -25.1266
lclavicle -2.78299e-014 -3.29983e-014
lhumerus 16.8682 -21.6568 81.9197
lradius 75.2085
lwrist -22.4142
lhand -14.3356 2.21978
lfingers 7.12502
lthumb 11.8055 31.867
rfemur -54.0041 -7.99145 26.2363
rtibia 86.9692
rfoot -16.4579 -8.39027
rtoes 5.60243
lfemur -40.5269 9.72167 -23.4598
ltibia 39.5701
lfoot -18.4666 0.856806
ltoes -0.971368
3425
root 38.5584 22.903 -6.40211 -181.046 -71.0669 -159.501
lowerback 30.1774 3.12145 1.48004
upperback 5.04521 4.23763 3.46133
thorax -11.0795 1.67936 1.51755
lowerneck -14.0086 -0.223181 -1.29704
upperneck -18.6707 -0.927976 5.1638
head -3.77317 -1.14996 1.99654
rclavicle -2.26615e-014 1.98785e-015
rhumerus 51.9773 18.6561 -63.6938
rradius 36.3214
rwrist 19.5299
rhand -38.4364 5.19876
rfingers 7.12502
rthumb -11.4601 -24.468
lclavicle -2.26615e-014 1.98785e-015
lhumerus 15.9206 -22.661 80.7313
lradius 78.7222
lwrist -20.6235
lhand -19.489 1.34769
lfingers 7.12502
lthumb 6.83313 31.2174
rfemur -55.3175 -7.89273 26.0967
rtibia 88.581
rfoot -17.6799 -8.27097
rtoes 5.54867
lfemur -39.0728 7.60829 -21.6155
ltibia 38.5525
lfoot -17.7852 -4.65204
ltoes 27.8728
3426
root 38.5472 22.9265 -6.42826 -181.112 -71.3586 -159.489
lowerback 29.787 3.05738 1.55839
upperback 5.44784 4.11745 3.49103
thorax -10.4123 1.6163 1.56851
lowerneck -14.9123 -0.29022 -1.79934
upperneck -18.4599 -0.957009 5.53412
head -3.54634 -1.14223 2.19801
rclavicle 6.87795e-014 4.8901e-014
rhumerus 52.252 18.3887 -63.693
rradius 36.2483
rwrist 19.6404
rhand -38.5992 5.94592
rfingers 7.12502
rthumb -11.6172 -23.7121
lclavicle 6.87795e-014 4.8901e-014
lhumerus 18.8835 -21.5259 81.7389
lradius 77.7769
lwrist -21.253
lhand -23.4529 -3.63245
lfingers 7.12502
lthumb 3.0057 26.3261
rfemur -57.3633 -7.86645 26.0227
rtibia 90.8297
rfoot -18.6681 -8.27703
rtoes 6.11691
lfemur -38.6641 8.20286 -22.2857
ltibia 37.3727
lfoot -17.4312 -3.42053
ltoes 22.6112
3427
root 38.5298 23.0414 -6.4502 -180.932 -71.585 -159.829
lowerback 29.7409 2.9746 1.60701
upperback 5.6653 3.97289 3.28808
thorax -10.1154 1.54141 1.36865
lowerneck -15.6943 -0.40722 -2.09358
upperneck -17.9805 -1.02547 6.19835
head -3.24153 -1.15697 2.45756
rclavicle 3.97569e-015 4.41302e-014
rhumerus 52.2067 18.2266 -63.9157
rradius 36.2838
rwrist 19.5085
rhand -38.8099 6.39972
rfingers 7.12502
rthumb -11.8204 -23.2467
lclavicle 3.97569e-015 4.41302e-014
lhumerus 19.8149 -21.5087 80.6646
lradius 79.3279
lwrist -20.3291
lhand -27.0241 -7.97551
lfingers 7.12502
lthumb -0.443389 22.0038
rfemur -58.8151 -7.73886 25.7929
rtibia 92.4825
rfoot -19.4805 -8.23663
rtoes 6.45395
lfemur -37.7851 7.5981 -21.9378
ltibia 36.4444
lfoot -16.9849 -3.61007
ltoes 26.1978
3428
root 38.5114 23.1467 -6.47022 -180.326 -71.7278 -160.631
lowerback 29.9934 3.05332 1.35869
upperback 5.66613 3.99234 3.19206
thorax -10.2501 1.55409 1.38844
lowerneck -15.6085 -0.405715 -1.91293
upperneck -18.0979 -1.0521 6.1349
head -3.29666 -1.18494 2.40672
rclavicle -1.11319e-014 -3.49861e-014
rhumerus 51.8073 18.2045 -63.9792
rradius 36.2991
rwrist 19.3147
rhand -39.2401 6.62582
rfingers 7.12502
rthumb -12.2351 -22.9963
lclavicle -1.11319e-014 -3.49861e-014
lhumerus 21.844 -20.8964 81.1936
lradius 79.8968
lwrist -20.2447
lhand -29.3009 -9.29554
lfingers 7.12502
lthumb -2.6423 20.6678
rfemur -60.2833 -7.54555 25.3831
rtibia 94.1558
rfoot -20.3448 -8.07137
rtoes 6.15213
lfemur -36.4921 6.62252 -21.4523
ltibia 35.0319
lfoot -16.3235 -3.85555
ltoes 31.3829
3429
root 38.4986 23.1323 -6.50161 -179.772 -71.8758 -161.334
lowerback 30.0269 3.15043 1.05432
upperback 5.74368 4.01716 3.21792
thorax -10.2021 1.57306 1.58383
lowerneck -17.3157 -1.04134 -4.25477
upperneck -16.4783 -1.38881 8.10285
head -2.41721 -1.16609 3.45808
rclavicle 1.31198e-014 4.81059e-014
rhumerus 51.5366 18.1477 -64.1563
rradius 36.1654
rwrist 19.3908
rhand -39.6336 6.91338
rfingers 7.12502
rthumb -12.6146 -22.6857
lclavicle 1.31198e-014 4.81059e-014
lhumerus 21.9247 -21.6577 78.5624
lradius 82.6025
lwrist -18.423
lhand -33.2825 -8.14981
lfingers 7.12502
lthumb -6.48697 21.7308
rfemur -62.4352 -7.36321 25.086
rtibia 96.3318
rfoot -20.9334 -8.22448
rtoes 4.00564
lfemur -36.1168 8.17055 -22.9401
ltibia 33.5516
lfoot -15.2086 -2.51285
ltoes 21.6105
3430
root 38.484 23.2001 -6.53463 -179.938 -72.0355 -161.262
lowerback 30.1889 3.34992 0.597043
upperback 5.68459 4.17611 3.53116
thorax -10.4153 1.6638 2.13845
lowerneck -16.5906 -0.885145 -3.71539
upperneck -16.9118 -1.32689 7.15627
head -2.69523 -1.1685 3.03978
rclavicle -1.15295e-014 1.23246e-014
rhumerus 51.1529 18.3103 -63.9467
rradius 36.0974
rwrist 19.3265
rhand -39.8145 6.79139
rfingers 7.12502
rthumb -12.789 -22.7969
lclavicle -1.15295e-014 1.23246e-014
lhumerus 24.4884 -20.0636 80.7898
lradius 81.5506
lwrist -20.0363
lhand -35.0032 -10.34
lfingers 7.12502
lthumb -8.1479 19.4829
rfemur -64.112 -7.06022 25.104
rtibia 97.8916
rfoot -21.4564 -8.45702
rtoes 1.28009
lfemur -35.0865 7.69634 -22.4584
ltibia 32.1908
lfoot -14.2935 -3.20461
ltoes 26.7825
3431
root 38.4722 23.2391 -6.56966 -180.747 -72.256 -160.539
lowerback 30.3732 3.50327 0.438595
upperback 5.65269 4.36524 3.8839
thorax -10.5942 1.7578 2.55535
lowerneck -15.9849 -1.19715 -3.94635
upperneck -17.1713 -1.70265 7.16856
head -2.86034 -1.35037 3.08763
rclavicle -3.65764e-014 -1.03368e-014
rhumerus 50.805 18.4337 -63.3506
rradius 36.2128
rwrist 18.8821
rhand -40.0079 6.54272
rfingers 7.12502
rthumb -12.9754 -23.0338
lclavicle -3.65764e-014 -1.03368e-014
lhumerus 25.7183 -19.3624 80.7883
lradius 82.4828
lwrist -20.1501
lhand -36.3785 -13.115
lfingers 7.12502
lthumb -9.47502 16.652
rfemur -65.8232 -6.77914 25.3123
rtibia 99.4414
rfoot -22.1417 -8.28939
rtoes 1.41291
lfemur -34.2751 8.21894 -22.4569
ltibia 30.6545
lfoot -13.495 -2.67794
ltoes 22.4443
3432
root 38.4627 23.2899 -6.59524 -181.564 -72.5008 -159.859
lowerback 30.5791 3.52711 0.369534
upperback 5.68527 4.40009 4.18757
thorax -10.6921 1.77427 2.92602
lowerneck -15.6672 -0.8307 -3.5904
upperneck -17.6737 -1.36588 6.10995
head -3.11786 -1.20225 2.67896
rclavicle 5.1684e-014 1.23246e-014
rhumerus 50.6394 18.8173 -62.7704
rradius 36.3339
rwrist 18.305
rhand -40.3776 6.55425
rfingers 7.12502
rthumb -13.3318 -22.9993
lclavicle 5.1684e-014 1.23246e-014
lhumerus 26.7367 -18.5741 79.9135
lradius 83.8025
lwrist -20.0392
lhand -37.1857 -15.2956
lfingers 7.12502
lthumb -10.2538 14.4345
rfemur -67.3316 -6.62137 25.5066
rtibia 100.597
rfoot -22.7064 -8.00334
rtoes 2.48747
lfemur -33.6746 8.26978 -22.2319
ltibia 29.8193
lfoot -13.0154 -1.96682
ltoes 18.9615
